# xmcd
#
# Track frame offsets: 
#        150
#        13307
#        27142
#        40347
#        59905
#        74287
#        90067
#        102595
#        116505
#        130910
#        145037
#        159985
#        174905
#
# Disc length: 2529 seconds
#
# Revision: 2
# Processed by: cddbd v1.4PL0 Copyright (c) Steve Scherf et al.
# Submitted via: ExactAudioCopy v0.90b4
#
DISCID=aa09df0d
DTITLE=Ivonne Avilez - Pollomanía
DYEAR=1998
DGENRE=Mexicana
TTITLE0=Piquito De Pollo
TTITLE1=Chango Guango
TTITLE2=Donde Estará
TTITLE3=Mi Mariachi
TTITLE4=El Carita Del Salón
TTITLE5=Dile Mamita
TTITLE6=El Coco
TTITLE7=La Carcachita
TTITLE8=Todo Puede Cambiar
TTITLE9=Bebeleche
TTITLE10=Pollomanía 1
TTITLE11=Pollomanía 2
TTITLE12=Pollomix
EXTD=
EXTT0=
EXTT1=
EXTT2=
EXTT3=
EXTT4=
EXTT5=
EXTT6=
EXTT7=
EXTT8=
EXTT9=
EXTT10=
EXTT11=
EXTT12=
PLAYORDER=
